<?xml version="1.0" standalone="no"?>
<!DOCTYPE svg PUBLIC "-//W3C//DTD SVG 20010904//EN"
 "http://www.w3.org/TR/2001/REC-SVG-20010904/DTD/svg10.dtd">
<svg version="1.0" xmlns="http://www.w3.org/2000/svg"
 width="100%" height="100%" viewBox="480 -90 766.000000 472.000000"
 preserveAspectRatio="xMidYMid meet" overflow="visible">

<g transform="translate(0.000000,472.000000) scale(0.150000,-0.150000)"
fill="#000000" stroke="none">
<path d="M2345 4654 c-458 -34 -813 -128 -1170 -309 -333 -169 -577 -368 -776
-635 -141 -189 -240 -409 -290 -645 -40 -191 -31 -452 22 -655 68 -255 188
-469 393 -702 l59 -68 -17 -43 c-34 -90 -119 -209 -232 -328 -63 -65 -121
-134 -129 -154 -17 -40 -20 -141 -4 -182 18 -50 62 -104 103 -128 67 -39 112
-44 248 -29 352 38 635 100 969 210 l137 45 98 -25 c122 -31 296 -61 434 -77
138 -16 538 -16 665 0 191 23 339 53 389 77 l49 25 30 -38 c45 -57 183 -190
267 -259 353 -286 835 -477 1350 -535 147 -17 522 -17 665 -1 135 16 341 54
454 85 l85 24 140 -48 c281 -95 659 -185 738 -174 66 8 112 29 154 71 50 51
74 107 74 177 0 68 -10 94 -81 213 -30 49 -68 129 -84 177 l-30 87 66 67 c95
99 159 177 219 268 227 348 295 764 185 1140 -131 449 -483 831 -995 1079
-367 177 -708 260 -1165 281 -178 8 -578 -24 -650 -52 -9 -3 -17 2 -21 13 -27
89 -75 155 -218 302 -386 397 -938 651 -1581 727 -128 15 -452 27 -550 19z
m460 -265 c474 -42 920 -204 1268 -462 131 -97 385 -355 366 -371 -2 -2 -49
-18 -104 -36 -320 -106 -610 -271 -847 -483 -272 -244 -447 -545 -514 -882
-24 -120 -25 -355 -1 -481 21 -116 68 -256 119 -358 22 -43 37 -80 34 -83 -3
-3 -49 -14 -103 -23 -399 -74 -873 -50 -1268 61 l-102 28 -159 -55 c-280 -98
-618 -176 -904 -209 -69 -8 -129 -15 -134 -15 -5 0 27 37 70 82 173 181 269
342 324 541 l21 76 -102 102 c-289 292 -431 610 -431 969 1 254 71 480 220
706 322 488 972 834 1682 894 231 19 336 19 565 -1z m2770 -1013 c249 -30 429
-71 621 -142 317 -117 625 -319 808 -529 297 -342 390 -748 261 -1139 -65
-198 -161 -344 -348 -528 l-139 -138 22 -102 c31 -146 87 -282 174 -424 l26
-42 -133 29 c-176 38 -357 88 -556 156 l-164 55 -126 -36 c-250 -70 -456 -97
-740 -97 -431 -1 -783 76 -1137 246 -237 115 -428 253 -574 416 -319 355 -413
751 -278 1169 53 166 166 337 328 501 63 63 151 142 195 174 294 218 691 371
1100 424 185 24 489 27 660 7z"/>
</g>
</svg>
