<?xml version="1.0" encoding="UTF-8"?><svg id="Layer_1" xmlns="http://www.w3.org/2000/svg" viewBox="0 0 96.13 15.19"><defs><style>.cls-1{fill:#fff;}</style></defs><path class="cls-1" d="M9.34,.22V2.26h-3.45V11.74H3.46V2.26H0V.22H9.34Z"/><path class="cls-1" d="M13.97,5.28c-.9,0-1.5,.29-1.81,.88-.17,.33-.26,.83-.26,1.52v4.07h-2.24V3.22h2.13v1.49c.34-.57,.64-.96,.9-1.17,.42-.35,.96-.52,1.63-.52,.04,0,.08,0,.11,0,.03,0,.09,0,.19,.01v2.28c-.14-.02-.27-.03-.38-.03-.11,0-.2,0-.27,0Z"/><path class="cls-1" d="M23.03,4.3c.72,.9,1.08,1.97,1.08,3.2s-.36,2.32-1.08,3.21c-.72,.89-1.81,1.33-3.28,1.33s-2.56-.44-3.28-1.33c-.72-.89-1.08-1.96-1.08-3.21s.36-2.3,1.08-3.2c.72-.9,1.81-1.35,3.28-1.35s2.56,.45,3.28,1.35Zm-3.28,.53c-.65,0-1.15,.23-1.51,.69-.35,.46-.53,1.12-.53,1.97s.18,1.51,.53,1.98c.35,.46,.85,.7,1.51,.7s1.15-.23,1.5-.7,.52-1.12,.52-1.98-.17-1.51-.52-1.97-.85-.69-1.5-.69Z"/><path class="cls-1" d="M25.8,3.26h2.23V12.66c0,.86-.17,1.5-.51,1.91-.34,.41-1,.62-1.99,.62-.07,0-.17,0-.3,0s-.3-.01-.5-.02v-1.78c.12,.01,.21,.02,.27,.02,.05,0,.1,0,.14,0,.22,0,.38-.05,.5-.16,.11-.11,.17-.31,.17-.62V3.26Zm0-3.11h2.23V2.21h-2.23V.15Z"/><path class="cls-1" d="M30.47,4.14c.59-.75,1.6-1.13,3.03-1.13,.93,0,1.76,.19,2.49,.56s1.09,1.07,1.09,2.1v3.91c0,.27,0,.6,.02,.99,.02,.29,.06,.49,.13,.59,.07,.1,.18,.19,.33,.26v.33h-2.42c-.07-.17-.12-.33-.14-.48-.03-.15-.05-.32-.06-.52-.31,.33-.66,.62-1.06,.85-.48,.28-1.02,.41-1.63,.41-.77,0-1.41-.22-1.91-.66s-.75-1.07-.75-1.87c0-1.05,.4-1.81,1.21-2.28,.44-.26,1.09-.44,1.96-.55l.76-.09c.41-.05,.71-.12,.88-.2,.32-.14,.48-.35,.48-.63,0-.35-.12-.59-.36-.72s-.6-.2-1.07-.2c-.53,0-.9,.13-1.12,.39-.16,.19-.26,.45-.31,.78h-2.15c.05-.75,.25-1.36,.62-1.84Zm1.66,5.99c.21,.17,.46,.26,.77,.26,.48,0,.92-.14,1.33-.42,.4-.28,.61-.79,.63-1.54v-.83c-.14,.09-.28,.16-.43,.22s-.34,.11-.59,.15l-.5,.09c-.47,.08-.81,.19-1.01,.31-.34,.2-.52,.52-.52,.95,0,.38,.11,.65,.32,.82Z"/><path class="cls-1" d="M43.07,4.87c-.76,0-1.27,.32-1.56,.96-.15,.34-.22,.77-.22,1.3v4.61h-2.22V3.24h2.15v1.24c.29-.44,.56-.75,.81-.95,.46-.34,1.04-.52,1.74-.52,.88,0,1.6,.23,2.16,.69,.56,.46,.84,1.23,.84,2.3v5.74h-2.28V6.56c0-.45-.06-.79-.18-1.03-.22-.44-.64-.66-1.25-.66Z"/><path class="cls-1" d="M61.6,10.88c-.86,.79-1.96,1.18-3.3,1.18-1.66,0-2.96-.53-3.91-1.59-.95-1.07-1.42-2.53-1.42-4.39,0-2.01,.54-3.56,1.62-4.65,.94-.95,2.13-1.42,3.58-1.42,1.94,0,3.36,.64,4.25,1.91,.5,.71,.76,1.43,.8,2.15h-2.41c-.16-.55-.36-.97-.6-1.25-.44-.5-1.09-.75-1.95-.75s-1.57,.35-2.07,1.06c-.51,.71-.76,1.71-.76,3s.27,2.26,.8,2.9c.53,.64,1.21,.97,2.04,.97s1.49-.28,1.93-.83c.25-.3,.45-.74,.61-1.34h2.38c-.21,1.26-.74,2.28-1.6,3.06Z"/><path class="cls-1" d="M72.56,6.74v5h-2.28V6.56c0-.46-.08-.83-.23-1.11-.2-.4-.59-.59-1.16-.59s-1.04,.2-1.34,.59c-.3,.39-.46,.96-.46,1.69v4.61h-2.22V.26h2.22V4.33c.32-.5,.7-.84,1.12-1.04,.42-.2,.87-.29,1.34-.29,.53,0,1,.09,1.44,.27,.43,.18,.78,.46,1.06,.84,.24,.32,.38,.65,.43,.98,.05,.34,.08,.88,.08,1.65Z"/><path class="cls-1" d="M74.96,4.14c.59-.75,1.6-1.13,3.03-1.13,.93,0,1.76,.19,2.49,.56s1.09,1.07,1.09,2.1v3.91c0,.27,0,.6,.02,.99,.02,.29,.06,.49,.13,.59,.07,.1,.18,.19,.33,.26v.33h-2.42c-.07-.17-.11-.33-.14-.48-.03-.15-.05-.32-.06-.52-.31,.33-.66,.62-1.06,.85-.48,.28-1.02,.41-1.63,.41-.77,0-1.41-.22-1.91-.66s-.75-1.07-.75-1.87c0-1.05,.4-1.81,1.21-2.28,.44-.26,1.09-.44,1.95-.55l.76-.09c.41-.05,.71-.12,.88-.2,.32-.14,.48-.35,.48-.63,0-.35-.12-.59-.36-.72s-.6-.2-1.07-.2c-.53,0-.9,.13-1.12,.39-.16,.19-.26,.45-.31,.78h-2.15c.05-.75,.25-1.36,.62-1.84Zm1.66,5.99c.21,.17,.46,.26,.77,.26,.48,0,.92-.14,1.33-.42,.4-.28,.61-.79,.63-1.54v-.83c-.14,.09-.28,.16-.43,.22s-.34,.11-.59,.15l-.5,.09c-.47,.08-.81,.19-1.01,.31-.34,.2-.52,.52-.52,.95,0,.38,.11,.65,.32,.82Z"/><path class="cls-1" d="M87.44,10.16v1.67l-1.05,.04c-1.05,.04-1.77-.15-2.16-.55-.25-.26-.38-.65-.38-1.18V4.89h-1.19v-1.59h1.19V.92h2.21V3.3h1.38v1.59h-1.38v4.5c0,.35,.04,.57,.13,.65,.09,.09,.36,.13,.81,.13,.07,0,.14,0,.21,0,.08,0,.15,0,.22-.01Z"/><path class="cls-1" d="M94.75,3.61c.67,.43,1.05,1.16,1.15,2.21h-2.23c-.03-.29-.11-.51-.24-.68-.25-.3-.66-.45-1.25-.45-.49,0-.83,.08-1.04,.23-.21,.15-.31,.33-.31,.53,0,.26,.11,.44,.33,.56,.22,.12,.99,.33,2.32,.62,.89,.21,1.55,.52,1.99,.95,.44,.43,.66,.96,.66,1.6,0,.85-.31,1.54-.94,2.07-.63,.53-1.6,.8-2.91,.8s-2.33-.28-2.97-.85c-.64-.56-.96-1.29-.96-2.16h2.26c.05,.4,.15,.68,.3,.85,.28,.3,.79,.45,1.53,.45,.44,0,.79-.07,1.04-.2,.26-.13,.39-.33,.39-.59s-.1-.44-.31-.57c-.21-.13-.98-.35-2.32-.67-.96-.24-1.64-.54-2.04-.9-.4-.35-.59-.87-.59-1.53,0-.79,.31-1.46,.93-2.03,.62-.57,1.49-.85,2.61-.85,1.06,0,1.93,.21,2.6,.63Z"/></svg>